<svg xmlns="http://www.w3.org/2000/svg" width="720" height="720" viewBox="0 0 720 720" shape-rendering="crispEdges"><rect width="720" height="720" fill="#ffffff"/><rect x="64" y="64" width="16" height="16" fill="#1b2440"/><rect x="80" y="64" width="16" height="16" fill="#1b2440"/><rect x="96" y="64" width="16" height="16" fill="#1b2440"/><rect x="112" y="64" width="16" height="16" fill="#1b2440"/><rect x="128" y="64" width="16" height="16" fill="#1b2440"/><rect x="144" y="64" width="16" height="16" fill="#1b2440"/><rect x="160" y="64" width="16" height="16" fill="#1b2440"/><rect x="192" y="64" width="16" height="16" fill="#1b2440"/><rect x="208" y="64" width="16" height="16" fill="#1b2440"/><rect x="224" y="64" width="16" height="16" fill="#1b2440"/><rect x="240" y="64" width="16" height="16" fill="#1b2440"/><rect x="272" y="64" width="16" height="16" fill="#1b2440"/><rect x="304" y="64" width="16" height="16" fill="#1b2440"/><rect x="320" y="64" width="16" height="16" fill="#1b2440"/><rect x="336" y="64" width="16" height="16" fill="#1b2440"/><rect x="352" y="64" width="16" height="16" fill="#1b2440"/><rect x="384" y="64" width="16" height="16" fill="#1b2440"/><rect x="416" y="64" width="16" height="16" fill="#1b2440"/><rect x="464" y="64" width="16" height="16" fill="#1b2440"/><rect x="496" y="64" width="16" height="16" fill="#1b2440"/><rect x="544" y="64" width="16" height="16" fill="#1b2440"/><rect x="560" y="64" width="16" height="16" fill="#1b2440"/><rect x="576" y="64" width="16" height="16" fill="#1b2440"/><rect x="592" y="64" width="16" height="16" fill="#1b2440"/><rect x="608" y="64" width="16" height="16" fill="#1b2440"/><rect x="624" y="64" width="16" height="16" fill="#1b2440"/><rect x="640" y="64" width="16" height="16" fill="#1b2440"/><rect x="64" y="80" width="16" height="16" fill="#1b2440"/><rect x="160" y="80" width="16" height="16" fill="#1b2440"/><rect x="224" y="80" width="16" height="16" fill="#1b2440"/><rect x="240" y="80" width="16" height="16" fill="#1b2440"/><rect x="256" y="80" width="16" height="16" fill="#1b2440"/><rect x="288" y="80" width="16" height="16" fill="#1b2440"/><rect x="304" y="80" width="16" height="16" fill="#1b2440"/><rect x="320" y="80" width="16" height="16" fill="#1b2440"/><rect x="336" y="80" width="16" height="16" fill="#1b2440"/><rect x="384" y="80" width="16" height="16" fill="#1b2440"/><rect x="480" y="80" width="16" height="16" fill="#1b2440"/><rect x="496" y="80" width="16" height="16" fill="#1b2440"/><rect x="544" y="80" width="16" height="16" fill="#1b2440"/><rect x="640" y="80" width="16" height="16" fill="#1b2440"/><rect x="64" y="96" width="16" height="16" fill="#1b2440"/><rect x="96" y="96" width="16" height="16" fill="#1b2440"/><rect x="112" y="96" width="16" height="16" fill="#1b2440"/><rect x="128" y="96" width="16" height="16" fill="#1b2440"/><rect x="160" y="96" width="16" height="16" fill="#1b2440"/><rect x="192" y="96" width="16" height="16" fill="#1b2440"/><rect x="208" y="96" width="16" height="16" fill="#1b2440"/><rect x="256" y="96" width="16" height="16" fill="#1b2440"/><rect x="320" y="96" width="16" height="16" fill="#1b2440"/><rect x="336" y="96" width="16" height="16" fill="#1b2440"/><rect x="384" y="96" width="16" height="16" fill="#1b2440"/><rect x="496" y="96" width="16" height="16" fill="#1b2440"/><rect x="544" y="96" width="16" height="16" fill="#1b2440"/><rect x="576" y="96" width="16" height="16" fill="#1b2440"/><rect x="592" y="96" width="16" height="16" fill="#1b2440"/><rect x="608" y="96" width="16" height="16" fill="#1b2440"/><rect x="640" y="96" width="16" height="16" fill="#1b2440"/><rect x="64" y="112" width="16" height="16" fill="#1b2440"/><rect x="96" y="112" width="16" height="16" fill="#1b2440"/><rect x="112" y="112" width="16" height="16" fill="#1b2440"/><rect x="128" y="112" width="16" height="16" fill="#1b2440"/><rect x="160" y="112" width="16" height="16" fill="#1b2440"/><rect x="192" y="112" width="16" height="16" fill="#1b2440"/><rect x="272" y="112" width="16" height="16" fill="#1b2440"/><rect x="304" y="112" width="16" height="16" fill="#1b2440"/><rect x="320" y="112" width="16" height="16" fill="#1b2440"/><rect x="336" y="112" width="16" height="16" fill="#1b2440"/><rect x="384" y="112" width="16" height="16" fill="#1b2440"/><rect x="416" y="112" width="16" height="16" fill="#1b2440"/><rect x="544" y="112" width="16" height="16" fill="#1b2440"/><rect x="576" y="112" width="16" height="16" fill="#1b2440"/><rect x="592" y="112" width="16" height="16" fill="#1b2440"/><rect x="608" y="112" width="16" height="16" fill="#1b2440"/><rect x="640" y="112" width="16" height="16" fill="#1b2440"/><rect x="64" y="128" width="16" height="16" fill="#1b2440"/><rect x="96" y="128" width="16" height="16" fill="#1b2440"/><rect x="112" y="128" width="16" height="16" fill="#1b2440"/><rect x="128" y="128" width="16" height="16" fill="#1b2440"/><rect x="160" y="128" width="16" height="16" fill="#1b2440"/><rect x="224" y="128" width="16" height="16" fill="#1b2440"/><rect x="320" y="128" width="16" height="16" fill="#1b2440"/><rect x="352" y="128" width="16" height="16" fill="#1b2440"/><rect x="384" y="128" width="16" height="16" fill="#1b2440"/><rect x="400" y="128" width="16" height="16" fill="#1b2440"/><rect x="416" y="128" width="16" height="16" fill="#1b2440"/><rect x="432" y="128" width="16" height="16" fill="#1b2440"/><rect x="448" y="128" width="16" height="16" fill="#1b2440"/><rect x="480" y="128" width="16" height="16" fill="#1b2440"/><rect x="496" y="128" width="16" height="16" fill="#1b2440"/><rect x="544" y="128" width="16" height="16" fill="#1b2440"/><rect x="576" y="128" width="16" height="16" fill="#1b2440"/><rect x="592" y="128" width="16" height="16" fill="#1b2440"/><rect x="608" y="128" width="16" height="16" fill="#1b2440"/><rect x="640" y="128" width="16" height="16" fill="#1b2440"/><rect x="64" y="144" width="16" height="16" fill="#1b2440"/><rect x="160" y="144" width="16" height="16" fill="#1b2440"/><rect x="192" y="144" width="16" height="16" fill="#1b2440"/><rect x="240" y="144" width="16" height="16" fill="#1b2440"/><rect x="272" y="144" width="16" height="16" fill="#1b2440"/><rect x="288" y="144" width="16" height="16" fill="#1b2440"/><rect x="304" y="144" width="16" height="16" fill="#1b2440"/><rect x="336" y="144" width="16" height="16" fill="#1b2440"/><rect x="352" y="144" width="16" height="16" fill="#1b2440"/><rect x="384" y="144" width="16" height="16" fill="#1b2440"/><rect x="400" y="144" width="16" height="16" fill="#1b2440"/><rect x="416" y="144" width="16" height="16" fill="#1b2440"/><rect x="496" y="144" width="16" height="16" fill="#1b2440"/><rect x="512" y="144" width="16" height="16" fill="#1b2440"/><rect x="544" y="144" width="16" height="16" fill="#1b2440"/><rect x="640" y="144" width="16" height="16" fill="#1b2440"/><rect x="64" y="160" width="16" height="16" fill="#1b2440"/><rect x="80" y="160" width="16" height="16" fill="#1b2440"/><rect x="96" y="160" width="16" height="16" fill="#1b2440"/><rect x="112" y="160" width="16" height="16" fill="#1b2440"/><rect x="128" y="160" width="16" height="16" fill="#1b2440"/><rect x="144" y="160" width="16" height="16" fill="#1b2440"/><rect x="160" y="160" width="16" height="16" fill="#1b2440"/><rect x="192" y="160" width="16" height="16" fill="#1b2440"/><rect x="224" y="160" width="16" height="16" fill="#1b2440"/><rect x="256" y="160" width="16" height="16" fill="#1b2440"/><rect x="288" y="160" width="16" height="16" fill="#1b2440"/><rect x="320" y="160" width="16" height="16" fill="#1b2440"/><rect x="352" y="160" width="16" height="16" fill="#1b2440"/><rect x="384" y="160" width="16" height="16" fill="#1b2440"/><rect x="416" y="160" width="16" height="16" fill="#1b2440"/><rect x="448" y="160" width="16" height="16" fill="#1b2440"/><rect x="480" y="160" width="16" height="16" fill="#1b2440"/><rect x="512" y="160" width="16" height="16" fill="#1b2440"/><rect x="544" y="160" width="16" height="16" fill="#1b2440"/><rect x="560" y="160" width="16" height="16" fill="#1b2440"/><rect x="576" y="160" width="16" height="16" fill="#1b2440"/><rect x="592" y="160" width="16" height="16" fill="#1b2440"/><rect x="608" y="160" width="16" height="16" fill="#1b2440"/><rect x="624" y="160" width="16" height="16" fill="#1b2440"/><rect x="640" y="160" width="16" height="16" fill="#1b2440"/><rect x="192" y="176" width="16" height="16" fill="#1b2440"/><rect x="208" y="176" width="16" height="16" fill="#1b2440"/><rect x="240" y="176" width="16" height="16" fill="#1b2440"/><rect x="256" y="176" width="16" height="16" fill="#1b2440"/><rect x="272" y="176" width="16" height="16" fill="#1b2440"/><rect x="304" y="176" width="16" height="16" fill="#1b2440"/><rect x="320" y="176" width="16" height="16" fill="#1b2440"/><rect x="336" y="176" width="16" height="16" fill="#1b2440"/><rect x="352" y="176" width="16" height="16" fill="#1b2440"/><rect x="368" y="176" width="16" height="16" fill="#1b2440"/><rect x="384" y="176" width="16" height="16" fill="#1b2440"/><rect x="400" y="176" width="16" height="16" fill="#1b2440"/><rect x="432" y="176" width="16" height="16" fill="#1b2440"/><rect x="464" y="176" width="16" height="16" fill="#1b2440"/><rect x="80" y="192" width="16" height="16" fill="#1b2440"/><rect x="112" y="192" width="16" height="16" fill="#1b2440"/><rect x="144" y="192" width="16" height="16" fill="#1b2440"/><rect x="160" y="192" width="16" height="16" fill="#1b2440"/><rect x="176" y="192" width="16" height="16" fill="#1b2440"/><rect x="192" y="192" width="16" height="16" fill="#1b2440"/><rect x="208" y="192" width="16" height="16" fill="#1b2440"/><rect x="224" y="192" width="16" height="16" fill="#1b2440"/><rect x="240" y="192" width="16" height="16" fill="#1b2440"/><rect x="256" y="192" width="16" height="16" fill="#1b2440"/><rect x="288" y="192" width="16" height="16" fill="#1b2440"/><rect x="352" y="192" width="16" height="16" fill="#1b2440"/><rect x="368" y="192" width="16" height="16" fill="#1b2440"/><rect x="384" y="192" width="16" height="16" fill="#1b2440"/><rect x="400" y="192" width="16" height="16" fill="#1b2440"/><rect x="432" y="192" width="16" height="16" fill="#1b2440"/><rect x="448" y="192" width="16" height="16" fill="#1b2440"/><rect x="480" y="192" width="16" height="16" fill="#1b2440"/><rect x="496" y="192" width="16" height="16" fill="#1b2440"/><rect x="528" y="192" width="16" height="16" fill="#1b2440"/><rect x="544" y="192" width="16" height="16" fill="#1b2440"/><rect x="560" y="192" width="16" height="16" fill="#1b2440"/><rect x="592" y="192" width="16" height="16" fill="#1b2440"/><rect x="608" y="192" width="16" height="16" fill="#1b2440"/><rect x="640" y="192" width="16" height="16" fill="#1b2440"/><rect x="64" y="208" width="16" height="16" fill="#1b2440"/><rect x="96" y="208" width="16" height="16" fill="#1b2440"/><rect x="112" y="208" width="16" height="16" fill="#1b2440"/><rect x="128" y="208" width="16" height="16" fill="#1b2440"/><rect x="176" y="208" width="16" height="16" fill="#1b2440"/><rect x="192" y="208" width="16" height="16" fill="#1b2440"/><rect x="208" y="208" width="16" height="16" fill="#1b2440"/><rect x="240" y="208" width="16" height="16" fill="#1b2440"/><rect x="272" y="208" width="16" height="16" fill="#1b2440"/><rect x="288" y="208" width="16" height="16" fill="#1b2440"/><rect x="304" y="208" width="16" height="16" fill="#1b2440"/><rect x="320" y="208" width="16" height="16" fill="#1b2440"/><rect x="368" y="208" width="16" height="16" fill="#1b2440"/><rect x="416" y="208" width="16" height="16" fill="#1b2440"/><rect x="496" y="208" width="16" height="16" fill="#1b2440"/><rect x="528" y="208" width="16" height="16" fill="#1b2440"/><rect x="576" y="208" width="16" height="16" fill="#1b2440"/><rect x="592" y="208" width="16" height="16" fill="#1b2440"/><rect x="624" y="208" width="16" height="16" fill="#1b2440"/><rect x="640" y="208" width="16" height="16" fill="#1b2440"/><rect x="128" y="224" width="16" height="16" fill="#1b2440"/><rect x="160" y="224" width="16" height="16" fill="#1b2440"/><rect x="192" y="224" width="16" height="16" fill="#1b2440"/><rect x="208" y="224" width="16" height="16" fill="#1b2440"/><rect x="224" y="224" width="16" height="16" fill="#1b2440"/><rect x="240" y="224" width="16" height="16" fill="#1b2440"/><rect x="256" y="224" width="16" height="16" fill="#1b2440"/><rect x="288" y="224" width="16" height="16" fill="#1b2440"/><rect x="352" y="224" width="16" height="16" fill="#1b2440"/><rect x="384" y="224" width="16" height="16" fill="#1b2440"/><rect x="400" y="224" width="16" height="16" fill="#1b2440"/><rect x="416" y="224" width="16" height="16" fill="#1b2440"/><rect x="512" y="224" width="16" height="16" fill="#1b2440"/><rect x="544" y="224" width="16" height="16" fill="#1b2440"/><rect x="560" y="224" width="16" height="16" fill="#1b2440"/><rect x="592" y="224" width="16" height="16" fill="#1b2440"/><rect x="640" y="224" width="16" height="16" fill="#1b2440"/><rect x="64" y="240" width="16" height="16" fill="#1b2440"/><rect x="80" y="240" width="16" height="16" fill="#1b2440"/><rect x="112" y="240" width="16" height="16" fill="#1b2440"/><rect x="128" y="240" width="16" height="16" fill="#1b2440"/><rect x="176" y="240" width="16" height="16" fill="#1b2440"/><rect x="192" y="240" width="16" height="16" fill="#1b2440"/><rect x="272" y="240" width="16" height="16" fill="#1b2440"/><rect x="352" y="240" width="16" height="16" fill="#1b2440"/><rect x="368" y="240" width="16" height="16" fill="#1b2440"/><rect x="384" y="240" width="16" height="16" fill="#1b2440"/><rect x="400" y="240" width="16" height="16" fill="#1b2440"/><rect x="416" y="240" width="16" height="16" fill="#1b2440"/><rect x="464" y="240" width="16" height="16" fill="#1b2440"/><rect x="496" y="240" width="16" height="16" fill="#1b2440"/><rect x="592" y="240" width="16" height="16" fill="#1b2440"/><rect x="624" y="240" width="16" height="16" fill="#1b2440"/><rect x="640" y="240" width="16" height="16" fill="#1b2440"/><rect x="64" y="256" width="16" height="16" fill="#1b2440"/><rect x="112" y="256" width="16" height="16" fill="#1b2440"/><rect x="160" y="256" width="16" height="16" fill="#1b2440"/><rect x="256" y="256" width="16" height="16" fill="#1b2440"/><rect x="272" y="256" width="16" height="16" fill="#1b2440"/><rect x="288" y="256" width="16" height="16" fill="#1b2440"/><rect x="400" y="256" width="16" height="16" fill="#1b2440"/><rect x="448" y="256" width="16" height="16" fill="#1b2440"/><rect x="464" y="256" width="16" height="16" fill="#1b2440"/><rect x="512" y="256" width="16" height="16" fill="#1b2440"/><rect x="528" y="256" width="16" height="16" fill="#1b2440"/><rect x="544" y="256" width="16" height="16" fill="#1b2440"/><rect x="560" y="256" width="16" height="16" fill="#1b2440"/><rect x="592" y="256" width="16" height="16" fill="#1b2440"/><rect x="608" y="256" width="16" height="16" fill="#1b2440"/><rect x="624" y="256" width="16" height="16" fill="#1b2440"/><rect x="80" y="272" width="16" height="16" fill="#1b2440"/><rect x="96" y="272" width="16" height="16" fill="#1b2440"/><rect x="128" y="272" width="16" height="16" fill="#1b2440"/><rect x="192" y="272" width="16" height="16" fill="#1b2440"/><rect x="224" y="272" width="16" height="16" fill="#1b2440"/><rect x="240" y="272" width="16" height="16" fill="#1b2440"/><rect x="256" y="272" width="16" height="16" fill="#1b2440"/><rect x="368" y="272" width="16" height="16" fill="#1b2440"/><rect x="384" y="272" width="16" height="16" fill="#1b2440"/><rect x="400" y="272" width="16" height="16" fill="#1b2440"/><rect x="448" y="272" width="16" height="16" fill="#1b2440"/><rect x="544" y="272" width="16" height="16" fill="#1b2440"/><rect x="560" y="272" width="16" height="16" fill="#1b2440"/><rect x="592" y="272" width="16" height="16" fill="#1b2440"/><rect x="640" y="272" width="16" height="16" fill="#1b2440"/><rect x="64" y="288" width="16" height="16" fill="#1b2440"/><rect x="80" y="288" width="16" height="16" fill="#1b2440"/><rect x="96" y="288" width="16" height="16" fill="#1b2440"/><rect x="144" y="288" width="16" height="16" fill="#1b2440"/><rect x="160" y="288" width="16" height="16" fill="#1b2440"/><rect x="176" y="288" width="16" height="16" fill="#1b2440"/><rect x="208" y="288" width="16" height="16" fill="#1b2440"/><rect x="288" y="288" width="16" height="16" fill="#1b2440"/><rect x="336" y="288" width="16" height="16" fill="#1b2440"/><rect x="384" y="288" width="16" height="16" fill="#1b2440"/><rect x="416" y="288" width="16" height="16" fill="#1b2440"/><rect x="432" y="288" width="16" height="16" fill="#1b2440"/><rect x="464" y="288" width="16" height="16" fill="#1b2440"/><rect x="560" y="288" width="16" height="16" fill="#1b2440"/><rect x="608" y="288" width="16" height="16" fill="#1b2440"/><rect x="640" y="288" width="16" height="16" fill="#1b2440"/><rect x="64" y="304" width="16" height="16" fill="#1b2440"/><rect x="80" y="304" width="16" height="16" fill="#1b2440"/><rect x="112" y="304" width="16" height="16" fill="#1b2440"/><rect x="144" y="304" width="16" height="16" fill="#1b2440"/><rect x="208" y="304" width="16" height="16" fill="#1b2440"/><rect x="224" y="304" width="16" height="16" fill="#1b2440"/><rect x="240" y="304" width="16" height="16" fill="#1b2440"/><rect x="256" y="304" width="16" height="16" fill="#1b2440"/><rect x="288" y="304" width="16" height="16" fill="#1b2440"/><rect x="304" y="304" width="16" height="16" fill="#1b2440"/><rect x="320" y="304" width="16" height="16" fill="#1b2440"/><rect x="336" y="304" width="16" height="16" fill="#1b2440"/><rect x="352" y="304" width="16" height="16" fill="#1b2440"/><rect x="384" y="304" width="16" height="16" fill="#1b2440"/><rect x="400" y="304" width="16" height="16" fill="#1b2440"/><rect x="416" y="304" width="16" height="16" fill="#1b2440"/><rect x="432" y="304" width="16" height="16" fill="#1b2440"/><rect x="464" y="304" width="16" height="16" fill="#1b2440"/><rect x="496" y="304" width="16" height="16" fill="#1b2440"/><rect x="512" y="304" width="16" height="16" fill="#1b2440"/><rect x="624" y="304" width="16" height="16" fill="#1b2440"/><rect x="640" y="304" width="16" height="16" fill="#1b2440"/><rect x="64" y="320" width="16" height="16" fill="#1b2440"/><rect x="80" y="320" width="16" height="16" fill="#1b2440"/><rect x="112" y="320" width="16" height="16" fill="#1b2440"/><rect x="144" y="320" width="16" height="16" fill="#1b2440"/><rect x="160" y="320" width="16" height="16" fill="#1b2440"/><rect x="176" y="320" width="16" height="16" fill="#1b2440"/><rect x="256" y="320" width="16" height="16" fill="#1b2440"/><rect x="288" y="320" width="16" height="16" fill="#1b2440"/><rect x="352" y="320" width="16" height="16" fill="#1b2440"/><rect x="432" y="320" width="16" height="16" fill="#1b2440"/><rect x="528" y="320" width="16" height="16" fill="#1b2440"/><rect x="544" y="320" width="16" height="16" fill="#1b2440"/><rect x="560" y="320" width="16" height="16" fill="#1b2440"/><rect x="592" y="320" width="16" height="16" fill="#1b2440"/><rect x="608" y="320" width="16" height="16" fill="#1b2440"/><rect x="624" y="320" width="16" height="16" fill="#1b2440"/><rect x="64" y="336" width="16" height="16" fill="#1b2440"/><rect x="80" y="336" width="16" height="16" fill="#1b2440"/><rect x="96" y="336" width="16" height="16" fill="#1b2440"/><rect x="112" y="336" width="16" height="16" fill="#1b2440"/><rect x="128" y="336" width="16" height="16" fill="#1b2440"/><rect x="144" y="336" width="16" height="16" fill="#1b2440"/><rect x="176" y="336" width="16" height="16" fill="#1b2440"/><rect x="208" y="336" width="16" height="16" fill="#1b2440"/><rect x="224" y="336" width="16" height="16" fill="#1b2440"/><rect x="272" y="336" width="16" height="16" fill="#1b2440"/><rect x="288" y="336" width="16" height="16" fill="#1b2440"/><rect x="304" y="336" width="16" height="16" fill="#1b2440"/><rect x="320" y="336" width="16" height="16" fill="#1b2440"/><rect x="368" y="336" width="16" height="16" fill="#1b2440"/><rect x="400" y="336" width="16" height="16" fill="#1b2440"/><rect x="416" y="336" width="16" height="16" fill="#1b2440"/><rect x="480" y="336" width="16" height="16" fill="#1b2440"/><rect x="512" y="336" width="16" height="16" fill="#1b2440"/><rect x="544" y="336" width="16" height="16" fill="#1b2440"/><rect x="560" y="336" width="16" height="16" fill="#1b2440"/><rect x="576" y="336" width="16" height="16" fill="#1b2440"/><rect x="640" y="336" width="16" height="16" fill="#1b2440"/><rect x="80" y="352" width="16" height="16" fill="#1b2440"/><rect x="112" y="352" width="16" height="16" fill="#1b2440"/><rect x="144" y="352" width="16" height="16" fill="#1b2440"/><rect x="160" y="352" width="16" height="16" fill="#1b2440"/><rect x="176" y="352" width="16" height="16" fill="#1b2440"/><rect x="224" y="352" width="16" height="16" fill="#1b2440"/><rect x="368" y="352" width="16" height="16" fill="#1b2440"/><rect x="400" y="352" width="16" height="16" fill="#1b2440"/><rect x="416" y="352" width="16" height="16" fill="#1b2440"/><rect x="464" y="352" width="16" height="16" fill="#1b2440"/><rect x="512" y="352" width="16" height="16" fill="#1b2440"/><rect x="544" y="352" width="16" height="16" fill="#1b2440"/><rect x="560" y="352" width="16" height="16" fill="#1b2440"/><rect x="608" y="352" width="16" height="16" fill="#1b2440"/><rect x="624" y="352" width="16" height="16" fill="#1b2440"/><rect x="640" y="352" width="16" height="16" fill="#1b2440"/><rect x="176" y="368" width="16" height="16" fill="#1b2440"/><rect x="192" y="368" width="16" height="16" fill="#1b2440"/><rect x="224" y="368" width="16" height="16" fill="#1b2440"/><rect x="272" y="368" width="16" height="16" fill="#1b2440"/><rect x="304" y="368" width="16" height="16" fill="#1b2440"/><rect x="320" y="368" width="16" height="16" fill="#1b2440"/><rect x="352" y="368" width="16" height="16" fill="#1b2440"/><rect x="368" y="368" width="16" height="16" fill="#1b2440"/><rect x="384" y="368" width="16" height="16" fill="#1b2440"/><rect x="400" y="368" width="16" height="16" fill="#1b2440"/><rect x="416" y="368" width="16" height="16" fill="#1b2440"/><rect x="432" y="368" width="16" height="16" fill="#1b2440"/><rect x="496" y="368" width="16" height="16" fill="#1b2440"/><rect x="528" y="368" width="16" height="16" fill="#1b2440"/><rect x="544" y="368" width="16" height="16" fill="#1b2440"/><rect x="608" y="368" width="16" height="16" fill="#1b2440"/><rect x="624" y="368" width="16" height="16" fill="#1b2440"/><rect x="160" y="384" width="16" height="16" fill="#1b2440"/><rect x="176" y="384" width="16" height="16" fill="#1b2440"/><rect x="192" y="384" width="16" height="16" fill="#1b2440"/><rect x="208" y="384" width="16" height="16" fill="#1b2440"/><rect x="240" y="384" width="16" height="16" fill="#1b2440"/><rect x="288" y="384" width="16" height="16" fill="#1b2440"/><rect x="320" y="384" width="16" height="16" fill="#1b2440"/><rect x="336" y="384" width="16" height="16" fill="#1b2440"/><rect x="352" y="384" width="16" height="16" fill="#1b2440"/><rect x="368" y="384" width="16" height="16" fill="#1b2440"/><rect x="400" y="384" width="16" height="16" fill="#1b2440"/><rect x="432" y="384" width="16" height="16" fill="#1b2440"/><rect x="464" y="384" width="16" height="16" fill="#1b2440"/><rect x="480" y="384" width="16" height="16" fill="#1b2440"/><rect x="496" y="384" width="16" height="16" fill="#1b2440"/><rect x="512" y="384" width="16" height="16" fill="#1b2440"/><rect x="544" y="384" width="16" height="16" fill="#1b2440"/><rect x="560" y="384" width="16" height="16" fill="#1b2440"/><rect x="576" y="384" width="16" height="16" fill="#1b2440"/><rect x="96" y="400" width="16" height="16" fill="#1b2440"/><rect x="112" y="400" width="16" height="16" fill="#1b2440"/><rect x="144" y="400" width="16" height="16" fill="#1b2440"/><rect x="224" y="400" width="16" height="16" fill="#1b2440"/><rect x="240" y="400" width="16" height="16" fill="#1b2440"/><rect x="304" y="400" width="16" height="16" fill="#1b2440"/><rect x="336" y="400" width="16" height="16" fill="#1b2440"/><rect x="368" y="400" width="16" height="16" fill="#1b2440"/><rect x="400" y="400" width="16" height="16" fill="#1b2440"/><rect x="448" y="400" width="16" height="16" fill="#1b2440"/><rect x="464" y="400" width="16" height="16" fill="#1b2440"/><rect x="528" y="400" width="16" height="16" fill="#1b2440"/><rect x="544" y="400" width="16" height="16" fill="#1b2440"/><rect x="608" y="400" width="16" height="16" fill="#1b2440"/><rect x="624" y="400" width="16" height="16" fill="#1b2440"/><rect x="64" y="416" width="16" height="16" fill="#1b2440"/><rect x="80" y="416" width="16" height="16" fill="#1b2440"/><rect x="112" y="416" width="16" height="16" fill="#1b2440"/><rect x="160" y="416" width="16" height="16" fill="#1b2440"/><rect x="176" y="416" width="16" height="16" fill="#1b2440"/><rect x="192" y="416" width="16" height="16" fill="#1b2440"/><rect x="224" y="416" width="16" height="16" fill="#1b2440"/><rect x="240" y="416" width="16" height="16" fill="#1b2440"/><rect x="272" y="416" width="16" height="16" fill="#1b2440"/><rect x="288" y="416" width="16" height="16" fill="#1b2440"/><rect x="304" y="416" width="16" height="16" fill="#1b2440"/><rect x="320" y="416" width="16" height="16" fill="#1b2440"/><rect x="336" y="416" width="16" height="16" fill="#1b2440"/><rect x="368" y="416" width="16" height="16" fill="#1b2440"/><rect x="384" y="416" width="16" height="16" fill="#1b2440"/><rect x="416" y="416" width="16" height="16" fill="#1b2440"/><rect x="448" y="416" width="16" height="16" fill="#1b2440"/><rect x="464" y="416" width="16" height="16" fill="#1b2440"/><rect x="480" y="416" width="16" height="16" fill="#1b2440"/><rect x="544" y="416" width="16" height="16" fill="#1b2440"/><rect x="560" y="416" width="16" height="16" fill="#1b2440"/><rect x="576" y="416" width="16" height="16" fill="#1b2440"/><rect x="608" y="416" width="16" height="16" fill="#1b2440"/><rect x="624" y="416" width="16" height="16" fill="#1b2440"/><rect x="96" y="432" width="16" height="16" fill="#1b2440"/><rect x="128" y="432" width="16" height="16" fill="#1b2440"/><rect x="144" y="432" width="16" height="16" fill="#1b2440"/><rect x="192" y="432" width="16" height="16" fill="#1b2440"/><rect x="208" y="432" width="16" height="16" fill="#1b2440"/><rect x="224" y="432" width="16" height="16" fill="#1b2440"/><rect x="272" y="432" width="16" height="16" fill="#1b2440"/><rect x="288" y="432" width="16" height="16" fill="#1b2440"/><rect x="304" y="432" width="16" height="16" fill="#1b2440"/><rect x="352" y="432" width="16" height="16" fill="#1b2440"/><rect x="384" y="432" width="16" height="16" fill="#1b2440"/><rect x="400" y="432" width="16" height="16" fill="#1b2440"/><rect x="464" y="432" width="16" height="16" fill="#1b2440"/><rect x="528" y="432" width="16" height="16" fill="#1b2440"/><rect x="576" y="432" width="16" height="16" fill="#1b2440"/><rect x="640" y="432" width="16" height="16" fill="#1b2440"/><rect x="64" y="448" width="16" height="16" fill="#1b2440"/><rect x="96" y="448" width="16" height="16" fill="#1b2440"/><rect x="112" y="448" width="16" height="16" fill="#1b2440"/><rect x="128" y="448" width="16" height="16" fill="#1b2440"/><rect x="144" y="448" width="16" height="16" fill="#1b2440"/><rect x="160" y="448" width="16" height="16" fill="#1b2440"/><rect x="176" y="448" width="16" height="16" fill="#1b2440"/><rect x="208" y="448" width="16" height="16" fill="#1b2440"/><rect x="224" y="448" width="16" height="16" fill="#1b2440"/><rect x="240" y="448" width="16" height="16" fill="#1b2440"/><rect x="256" y="448" width="16" height="16" fill="#1b2440"/><rect x="272" y="448" width="16" height="16" fill="#1b2440"/><rect x="288" y="448" width="16" height="16" fill="#1b2440"/><rect x="320" y="448" width="16" height="16" fill="#1b2440"/><rect x="336" y="448" width="16" height="16" fill="#1b2440"/><rect x="352" y="448" width="16" height="16" fill="#1b2440"/><rect x="368" y="448" width="16" height="16" fill="#1b2440"/><rect x="400" y="448" width="16" height="16" fill="#1b2440"/><rect x="448" y="448" width="16" height="16" fill="#1b2440"/><rect x="480" y="448" width="16" height="16" fill="#1b2440"/><rect x="496" y="448" width="16" height="16" fill="#1b2440"/><rect x="512" y="448" width="16" height="16" fill="#1b2440"/><rect x="544" y="448" width="16" height="16" fill="#1b2440"/><rect x="560" y="448" width="16" height="16" fill="#1b2440"/><rect x="576" y="448" width="16" height="16" fill="#1b2440"/><rect x="592" y="448" width="16" height="16" fill="#1b2440"/><rect x="624" y="448" width="16" height="16" fill="#1b2440"/><rect x="128" y="464" width="16" height="16" fill="#1b2440"/><rect x="144" y="464" width="16" height="16" fill="#1b2440"/><rect x="176" y="464" width="16" height="16" fill="#1b2440"/><rect x="192" y="464" width="16" height="16" fill="#1b2440"/><rect x="240" y="464" width="16" height="16" fill="#1b2440"/><rect x="304" y="464" width="16" height="16" fill="#1b2440"/><rect x="336" y="464" width="16" height="16" fill="#1b2440"/><rect x="368" y="464" width="16" height="16" fill="#1b2440"/><rect x="384" y="464" width="16" height="16" fill="#1b2440"/><rect x="400" y="464" width="16" height="16" fill="#1b2440"/><rect x="448" y="464" width="16" height="16" fill="#1b2440"/><rect x="464" y="464" width="16" height="16" fill="#1b2440"/><rect x="480" y="464" width="16" height="16" fill="#1b2440"/><rect x="496" y="464" width="16" height="16" fill="#1b2440"/><rect x="624" y="464" width="16" height="16" fill="#1b2440"/><rect x="640" y="464" width="16" height="16" fill="#1b2440"/><rect x="64" y="480" width="16" height="16" fill="#1b2440"/><rect x="96" y="480" width="16" height="16" fill="#1b2440"/><rect x="128" y="480" width="16" height="16" fill="#1b2440"/><rect x="144" y="480" width="16" height="16" fill="#1b2440"/><rect x="160" y="480" width="16" height="16" fill="#1b2440"/><rect x="192" y="480" width="16" height="16" fill="#1b2440"/><rect x="224" y="480" width="16" height="16" fill="#1b2440"/><rect x="240" y="480" width="16" height="16" fill="#1b2440"/><rect x="272" y="480" width="16" height="16" fill="#1b2440"/><rect x="288" y="480" width="16" height="16" fill="#1b2440"/><rect x="352" y="480" width="16" height="16" fill="#1b2440"/><rect x="384" y="480" width="16" height="16" fill="#1b2440"/><rect x="416" y="480" width="16" height="16" fill="#1b2440"/><rect x="432" y="480" width="16" height="16" fill="#1b2440"/><rect x="448" y="480" width="16" height="16" fill="#1b2440"/><rect x="496" y="480" width="16" height="16" fill="#1b2440"/><rect x="512" y="480" width="16" height="16" fill="#1b2440"/><rect x="528" y="480" width="16" height="16" fill="#1b2440"/><rect x="544" y="480" width="16" height="16" fill="#1b2440"/><rect x="560" y="480" width="16" height="16" fill="#1b2440"/><rect x="640" y="480" width="16" height="16" fill="#1b2440"/><rect x="80" y="496" width="16" height="16" fill="#1b2440"/><rect x="112" y="496" width="16" height="16" fill="#1b2440"/><rect x="128" y="496" width="16" height="16" fill="#1b2440"/><rect x="208" y="496" width="16" height="16" fill="#1b2440"/><rect x="224" y="496" width="16" height="16" fill="#1b2440"/><rect x="256" y="496" width="16" height="16" fill="#1b2440"/><rect x="272" y="496" width="16" height="16" fill="#1b2440"/><rect x="288" y="496" width="16" height="16" fill="#1b2440"/><rect x="304" y="496" width="16" height="16" fill="#1b2440"/><rect x="336" y="496" width="16" height="16" fill="#1b2440"/><rect x="352" y="496" width="16" height="16" fill="#1b2440"/><rect x="368" y="496" width="16" height="16" fill="#1b2440"/><rect x="400" y="496" width="16" height="16" fill="#1b2440"/><rect x="432" y="496" width="16" height="16" fill="#1b2440"/><rect x="464" y="496" width="16" height="16" fill="#1b2440"/><rect x="480" y="496" width="16" height="16" fill="#1b2440"/><rect x="512" y="496" width="16" height="16" fill="#1b2440"/><rect x="544" y="496" width="16" height="16" fill="#1b2440"/><rect x="560" y="496" width="16" height="16" fill="#1b2440"/><rect x="608" y="496" width="16" height="16" fill="#1b2440"/><rect x="640" y="496" width="16" height="16" fill="#1b2440"/><rect x="64" y="512" width="16" height="16" fill="#1b2440"/><rect x="80" y="512" width="16" height="16" fill="#1b2440"/><rect x="96" y="512" width="16" height="16" fill="#1b2440"/><rect x="112" y="512" width="16" height="16" fill="#1b2440"/><rect x="128" y="512" width="16" height="16" fill="#1b2440"/><rect x="144" y="512" width="16" height="16" fill="#1b2440"/><rect x="160" y="512" width="16" height="16" fill="#1b2440"/><rect x="224" y="512" width="16" height="16" fill="#1b2440"/><rect x="304" y="512" width="16" height="16" fill="#1b2440"/><rect x="352" y="512" width="16" height="16" fill="#1b2440"/><rect x="368" y="512" width="16" height="16" fill="#1b2440"/><rect x="384" y="512" width="16" height="16" fill="#1b2440"/><rect x="400" y="512" width="16" height="16" fill="#1b2440"/><rect x="416" y="512" width="16" height="16" fill="#1b2440"/><rect x="448" y="512" width="16" height="16" fill="#1b2440"/><rect x="496" y="512" width="16" height="16" fill="#1b2440"/><rect x="512" y="512" width="16" height="16" fill="#1b2440"/><rect x="528" y="512" width="16" height="16" fill="#1b2440"/><rect x="544" y="512" width="16" height="16" fill="#1b2440"/><rect x="560" y="512" width="16" height="16" fill="#1b2440"/><rect x="576" y="512" width="16" height="16" fill="#1b2440"/><rect x="624" y="512" width="16" height="16" fill="#1b2440"/><rect x="640" y="512" width="16" height="16" fill="#1b2440"/><rect x="192" y="528" width="16" height="16" fill="#1b2440"/><rect x="208" y="528" width="16" height="16" fill="#1b2440"/><rect x="224" y="528" width="16" height="16" fill="#1b2440"/><rect x="256" y="528" width="16" height="16" fill="#1b2440"/><rect x="272" y="528" width="16" height="16" fill="#1b2440"/><rect x="304" y="528" width="16" height="16" fill="#1b2440"/><rect x="336" y="528" width="16" height="16" fill="#1b2440"/><rect x="368" y="528" width="16" height="16" fill="#1b2440"/><rect x="384" y="528" width="16" height="16" fill="#1b2440"/><rect x="416" y="528" width="16" height="16" fill="#1b2440"/><rect x="432" y="528" width="16" height="16" fill="#1b2440"/><rect x="448" y="528" width="16" height="16" fill="#1b2440"/><rect x="480" y="528" width="16" height="16" fill="#1b2440"/><rect x="496" y="528" width="16" height="16" fill="#1b2440"/><rect x="512" y="528" width="16" height="16" fill="#1b2440"/><rect x="576" y="528" width="16" height="16" fill="#1b2440"/><rect x="640" y="528" width="16" height="16" fill="#1b2440"/><rect x="64" y="544" width="16" height="16" fill="#1b2440"/><rect x="80" y="544" width="16" height="16" fill="#1b2440"/><rect x="96" y="544" width="16" height="16" fill="#1b2440"/><rect x="112" y="544" width="16" height="16" fill="#1b2440"/><rect x="128" y="544" width="16" height="16" fill="#1b2440"/><rect x="144" y="544" width="16" height="16" fill="#1b2440"/><rect x="160" y="544" width="16" height="16" fill="#1b2440"/><rect x="192" y="544" width="16" height="16" fill="#1b2440"/><rect x="208" y="544" width="16" height="16" fill="#1b2440"/><rect x="256" y="544" width="16" height="16" fill="#1b2440"/><rect x="304" y="544" width="16" height="16" fill="#1b2440"/><rect x="320" y="544" width="16" height="16" fill="#1b2440"/><rect x="384" y="544" width="16" height="16" fill="#1b2440"/><rect x="400" y="544" width="16" height="16" fill="#1b2440"/><rect x="480" y="544" width="16" height="16" fill="#1b2440"/><rect x="496" y="544" width="16" height="16" fill="#1b2440"/><rect x="512" y="544" width="16" height="16" fill="#1b2440"/><rect x="544" y="544" width="16" height="16" fill="#1b2440"/><rect x="576" y="544" width="16" height="16" fill="#1b2440"/><rect x="608" y="544" width="16" height="16" fill="#1b2440"/><rect x="624" y="544" width="16" height="16" fill="#1b2440"/><rect x="640" y="544" width="16" height="16" fill="#1b2440"/><rect x="64" y="560" width="16" height="16" fill="#1b2440"/><rect x="160" y="560" width="16" height="16" fill="#1b2440"/><rect x="192" y="560" width="16" height="16" fill="#1b2440"/><rect x="208" y="560" width="16" height="16" fill="#1b2440"/><rect x="224" y="560" width="16" height="16" fill="#1b2440"/><rect x="272" y="560" width="16" height="16" fill="#1b2440"/><rect x="288" y="560" width="16" height="16" fill="#1b2440"/><rect x="320" y="560" width="16" height="16" fill="#1b2440"/><rect x="352" y="560" width="16" height="16" fill="#1b2440"/><rect x="416" y="560" width="16" height="16" fill="#1b2440"/><rect x="432" y="560" width="16" height="16" fill="#1b2440"/><rect x="448" y="560" width="16" height="16" fill="#1b2440"/><rect x="480" y="560" width="16" height="16" fill="#1b2440"/><rect x="512" y="560" width="16" height="16" fill="#1b2440"/><rect x="576" y="560" width="16" height="16" fill="#1b2440"/><rect x="608" y="560" width="16" height="16" fill="#1b2440"/><rect x="64" y="576" width="16" height="16" fill="#1b2440"/><rect x="96" y="576" width="16" height="16" fill="#1b2440"/><rect x="112" y="576" width="16" height="16" fill="#1b2440"/><rect x="128" y="576" width="16" height="16" fill="#1b2440"/><rect x="160" y="576" width="16" height="16" fill="#1b2440"/><rect x="208" y="576" width="16" height="16" fill="#1b2440"/><rect x="240" y="576" width="16" height="16" fill="#1b2440"/><rect x="384" y="576" width="16" height="16" fill="#1b2440"/><rect x="448" y="576" width="16" height="16" fill="#1b2440"/><rect x="464" y="576" width="16" height="16" fill="#1b2440"/><rect x="480" y="576" width="16" height="16" fill="#1b2440"/><rect x="512" y="576" width="16" height="16" fill="#1b2440"/><rect x="528" y="576" width="16" height="16" fill="#1b2440"/><rect x="544" y="576" width="16" height="16" fill="#1b2440"/><rect x="560" y="576" width="16" height="16" fill="#1b2440"/><rect x="576" y="576" width="16" height="16" fill="#1b2440"/><rect x="592" y="576" width="16" height="16" fill="#1b2440"/><rect x="624" y="576" width="16" height="16" fill="#1b2440"/><rect x="640" y="576" width="16" height="16" fill="#1b2440"/><rect x="64" y="592" width="16" height="16" fill="#1b2440"/><rect x="96" y="592" width="16" height="16" fill="#1b2440"/><rect x="112" y="592" width="16" height="16" fill="#1b2440"/><rect x="128" y="592" width="16" height="16" fill="#1b2440"/><rect x="160" y="592" width="16" height="16" fill="#1b2440"/><rect x="192" y="592" width="16" height="16" fill="#1b2440"/><rect x="208" y="592" width="16" height="16" fill="#1b2440"/><rect x="224" y="592" width="16" height="16" fill="#1b2440"/><rect x="368" y="592" width="16" height="16" fill="#1b2440"/><rect x="400" y="592" width="16" height="16" fill="#1b2440"/><rect x="432" y="592" width="16" height="16" fill="#1b2440"/><rect x="448" y="592" width="16" height="16" fill="#1b2440"/><rect x="464" y="592" width="16" height="16" fill="#1b2440"/><rect x="480" y="592" width="16" height="16" fill="#1b2440"/><rect x="512" y="592" width="16" height="16" fill="#1b2440"/><rect x="528" y="592" width="16" height="16" fill="#1b2440"/><rect x="560" y="592" width="16" height="16" fill="#1b2440"/><rect x="576" y="592" width="16" height="16" fill="#1b2440"/><rect x="624" y="592" width="16" height="16" fill="#1b2440"/><rect x="640" y="592" width="16" height="16" fill="#1b2440"/><rect x="64" y="608" width="16" height="16" fill="#1b2440"/><rect x="96" y="608" width="16" height="16" fill="#1b2440"/><rect x="112" y="608" width="16" height="16" fill="#1b2440"/><rect x="128" y="608" width="16" height="16" fill="#1b2440"/><rect x="160" y="608" width="16" height="16" fill="#1b2440"/><rect x="208" y="608" width="16" height="16" fill="#1b2440"/><rect x="256" y="608" width="16" height="16" fill="#1b2440"/><rect x="272" y="608" width="16" height="16" fill="#1b2440"/><rect x="336" y="608" width="16" height="16" fill="#1b2440"/><rect x="368" y="608" width="16" height="16" fill="#1b2440"/><rect x="416" y="608" width="16" height="16" fill="#1b2440"/><rect x="432" y="608" width="16" height="16" fill="#1b2440"/><rect x="448" y="608" width="16" height="16" fill="#1b2440"/><rect x="464" y="608" width="16" height="16" fill="#1b2440"/><rect x="480" y="608" width="16" height="16" fill="#1b2440"/><rect x="528" y="608" width="16" height="16" fill="#1b2440"/><rect x="576" y="608" width="16" height="16" fill="#1b2440"/><rect x="592" y="608" width="16" height="16" fill="#1b2440"/><rect x="640" y="608" width="16" height="16" fill="#1b2440"/><rect x="64" y="624" width="16" height="16" fill="#1b2440"/><rect x="160" y="624" width="16" height="16" fill="#1b2440"/><rect x="192" y="624" width="16" height="16" fill="#1b2440"/><rect x="208" y="624" width="16" height="16" fill="#1b2440"/><rect x="224" y="624" width="16" height="16" fill="#1b2440"/><rect x="240" y="624" width="16" height="16" fill="#1b2440"/><rect x="256" y="624" width="16" height="16" fill="#1b2440"/><rect x="304" y="624" width="16" height="16" fill="#1b2440"/><rect x="320" y="624" width="16" height="16" fill="#1b2440"/><rect x="336" y="624" width="16" height="16" fill="#1b2440"/><rect x="368" y="624" width="16" height="16" fill="#1b2440"/><rect x="384" y="624" width="16" height="16" fill="#1b2440"/><rect x="400" y="624" width="16" height="16" fill="#1b2440"/><rect x="432" y="624" width="16" height="16" fill="#1b2440"/><rect x="448" y="624" width="16" height="16" fill="#1b2440"/><rect x="464" y="624" width="16" height="16" fill="#1b2440"/><rect x="496" y="624" width="16" height="16" fill="#1b2440"/><rect x="512" y="624" width="16" height="16" fill="#1b2440"/><rect x="528" y="624" width="16" height="16" fill="#1b2440"/><rect x="560" y="624" width="16" height="16" fill="#1b2440"/><rect x="64" y="640" width="16" height="16" fill="#1b2440"/><rect x="80" y="640" width="16" height="16" fill="#1b2440"/><rect x="96" y="640" width="16" height="16" fill="#1b2440"/><rect x="112" y="640" width="16" height="16" fill="#1b2440"/><rect x="128" y="640" width="16" height="16" fill="#1b2440"/><rect x="144" y="640" width="16" height="16" fill="#1b2440"/><rect x="160" y="640" width="16" height="16" fill="#1b2440"/><rect x="240" y="640" width="16" height="16" fill="#1b2440"/><rect x="256" y="640" width="16" height="16" fill="#1b2440"/><rect x="288" y="640" width="16" height="16" fill="#1b2440"/><rect x="352" y="640" width="16" height="16" fill="#1b2440"/><rect x="384" y="640" width="16" height="16" fill="#1b2440"/><rect x="416" y="640" width="16" height="16" fill="#1b2440"/><rect x="432" y="640" width="16" height="16" fill="#1b2440"/><rect x="464" y="640" width="16" height="16" fill="#1b2440"/><rect x="496" y="640" width="16" height="16" fill="#1b2440"/><rect x="512" y="640" width="16" height="16" fill="#1b2440"/><rect x="560" y="640" width="16" height="16" fill="#1b2440"/><rect x="576" y="640" width="16" height="16" fill="#1b2440"/><rect x="592" y="640" width="16" height="16" fill="#1b2440"/><rect x="624" y="640" width="16" height="16" fill="#1b2440"/><rect x="640" y="640" width="16" height="16" fill="#1b2440"/></svg>